<svg height="512" viewBox="0 0 512 512" width="512" xmlns="http://www.w3.org/2000/svg"><g id="flat"><path d="m352 456v-8h48v40h-32a38.628 38.628 0 0 0 -11.314-27.314z" fill="#da922a"/><path d="m232 456 24-8 24 8-8 32h-32z" fill="#d18d28"/><path d="m112 448h48v8l-4.686 4.686a38.628 38.628 0 0 0 -11.314 27.314h-32z" fill="#da922a"/><path d="m240 320h-88a16.019 16.019 0 0 1 -16-16v-8h16v8h88z" fill="#9e785d"/><path d="m360 54h-2a30 30 0 0 0 -60 0h-2a24 24 0 0 0 -24 24 24 24 0 0 0 24 24h64a24 24 0 0 0 24-24 24 24 0 0 0 -24-24z" fill="#5e8569"/><path d="m400 456h-288a16 16 0 0 1 -16-16v-56h320v56a16 16 0 0 1 -16 16z" fill="#ea9d2d"/><path d="m248 416h16v16h-16z" fill="#da922a"/><path d="m152 360v-.969a48 48 0 0 1 38.21-46.991l144.237-30.05a12 12 0 0 0 9.553-11.748v-2.242a12 12 0 0 0 -12-12h-102a54 54 0 0 1 -54-54v-.7a36 36 0 0 1 13.511-28.111l66.489-53.189h40l-76.335 68.7a11.068 11.068 0 0 0 -3.665 8.23 11.07 11.07 0 0 0 11.07 11.07h128.93a60 60 0 0 1 60 60v.606a78 78 0 0 1 -26.637 58.7l-37.363 32.694v8h-200z" fill="#bd9070"/><path d="m304 80h-2a30 30 0 0 0 -60 0h-2a24 24 0 0 0 -24 24 24 24 0 0 0 24 24h64a24 24 0 0 0 24-24 24 24 0 0 0 -24-24z" fill="#6b9777"/><path d="m208 168h-2a30 30 0 0 0 -60 0h-2a24 24 0 0 0 -24 24 24 24 0 0 0 24 24h64a24 24 0 0 0 24-24 24 24 0 0 0 -24-24z" fill="#6b9777"/><path d="m272 208h-2a30 30 0 0 0 -60 0h-2a24 24 0 0 0 -24 24 24 24 0 0 0 24 24h64a24 24 0 0 0 24-24 24 24 0 0 0 -24-24z" fill="#85bc94"/><path d="m456 214h-2a30 30 0 0 0 -60 0h-2a24 24 0 0 0 -24 24 24 24 0 0 0 24 24l64 2c13.255 0 24-12.745 24-26a24 24 0 0 0 -24-24z" fill="#85bc94"/><path d="m288 110.113a28 28 0 0 1 25.254-27.978c.787-.078 1.568-.114 2.345-.125a29.994 29.994 0 0 1 50.401 21.99h2a24 24 0 0 1 24 24 24 24 0 0 1 -24 24h-64a24 24 0 0 1 -24-24 23.939 23.939 0 0 1 8-17.887z" fill="#85bc94"/><g fill="#9e785d"><path d="m216 368a8 8 0 0 1 -8-8v-6.667a30.156 30.156 0 0 1 22.875-29.3l47.185-11.8a8 8 0 0 1 3.88 15.522l-47.185 11.8a14.178 14.178 0 0 0 -10.755 13.778v6.667a8 8 0 0 1 -8 8z"/><path d="m359.318 320a8 8 0 0 1 -5.177-14.1c2.823-2.392 5.582-4.934 8.2-7.554a8 8 0 0 1 11.314 11.314c-2.929 2.928-6.014 5.77-9.17 8.446a7.971 7.971 0 0 1 -5.167 1.894z"/><path d="m296 368a8 8 0 0 1 -8-8 30.16 30.16 0 0 1 20.649-28.649l.62-.207a135.986 135.986 0 0 0 23.031-10.136 8 8 0 1 1 7.775 13.984 152.115 152.115 0 0 1 -25.747 11.33l-.621.207a14.181 14.181 0 0 0 -9.707 13.471 8 8 0 0 1 -8 8z"/></g><path d="m136 416h16v16h-16z" fill="#da922a"/><path d="m360 416h16v16h-16z" fill="#da922a"/><path d="m136 264h-2a30 30 0 0 0 -60 0h-2a24 24 0 0 0 -24 24 24 24 0 0 0 24 24h64a24 24 0 0 0 24-24 24 24 0 0 0 -24-24z" fill="#6b9777"/><rect fill="#f3af3e" height="32" rx="16" width="352" x="80" y="360"/></g></svg>