<svg height="480pt" viewBox="0 0 480.00014 480" width="480pt" xmlns="http://www.w3.org/2000/svg" xmlns:xlink="http://www.w3.org/1999/xlink"><linearGradient id="a" gradientUnits="userSpaceOnUse" x1="22.461722" x2="445.774834" y1="497.774071" y2="74.460951"><stop offset="0" stop-color="#fcee21"/><stop offset="1" stop-color="#39b54a"/></linearGradient><path d="m478.65625 467.5625c-.144531-.21875-14.65625-22.324219-14.65625-51.5625 0-11.09375 10.582031-29.433594 14.660156-35.566406 1.632813-2.453125 1.78125-5.613282.390625-8.210938-1.394531-2.597656-4.101562-4.222656-7.050781-4.222656-6.339844 0-20.421875 7.804688-39.816406 21.945312-.105469-4.390624-.183594-9.054687-.183594-13.945312 0-52.484375 45.535156-106.175781 45.992188-106.714844 2.480468-2.890625 2.578124-7.128906.234374-10.128906-2.339843-3-6.472656-3.929688-9.882812-2.234375-1.367188.683594-34.003906 17.375-82.421875 73.875-4.226563 4.9375-8.179687 10.25-12.003906 15.730469 4.117187-26.722656 9.976562-50.808594 17.601562-71.796875 29.300781-80.671875 79.425781-120.035157 85.042969-124.257813 3.320312-2.492187 4.179688-7.109375 1.984375-10.628906-2.199219-3.527344-6.730469-4.773438-10.417969-2.894531-8.417968 4.285156-83.578125 43.4375-130.203125 97.847656-13.496093 15.753906-25.871093 32.34375-37.0625 49.640625.96875-3.410156 1.800781-6.753906 2.8125-10.179688 38.902344-132.273437 117.199219-211.816406 117.984375-212.605468 2.808594-2.8125 3.125-7.265625.742188-10.445313-2.382813-3.1875-6.75-4.144531-10.230469-2.230469-3.101563 1.6875-72.773437 40.484376-150.367187 145.519532.195312-89.859375 10.042968-184.628906 10.152343-185.660156.398438-3.78125-1.921875-7.320313-5.546875-8.464844-3.632812-1.136719-7.558594.414062-9.402344 3.742187-1.511718 2.71875-35.371093 64.546875-59.386718 175.511719-61.070313-98.117188-137.082032-134.71875-146.003906-138.753906-3.902344-1.777344-8.492188-.152344-10.429688 3.667968-1.9375 3.8125-.53125 8.476563 3.191406 10.582032 1.886719 1.066406 46.578125 27.492187 83.988282 147.269531 3.203124 10.21875 6.054687 21.003906 8.613281 32.164063-54.382813-53.292969-121.929688-87.910157-125.117188-89.527344-3.601562-1.828125-7.988281-.683594-10.25 2.652344-2.257812 3.34375-1.675781 7.84375 1.359375 10.5 2.234375 1.957031 55.140625 48.945312 85.507813 132.554687 4.089843 11.246094 7.59375 23.222656 10.6875 35.644531-32.066407-46.859375-88.433594-61.902344-89.019531-62.050781-3.695313-.941406-7.476563.808594-9.152344 4.1875-1.679688 3.382813-.769532 7.476563 2.1875 9.824219 3.160156 2.511718 31.511718 26.222656 53.332031 84.484375 3.167969 8.394531 5.664063 16.847656 7.667969 25.472656-25.535156-14.4375-50.429688-19.335937-53.710938-19.929687-4.210937-.75-8.269531 1.90625-9.230468 6.070312-.960938 4.164062 1.519531 8.347656 5.632812 9.503906 2.859375.800782 17.125 6.121094 17.125 32.058594 0 28.164062-21.453125 50.136719-21.65625 50.34375-2.2890625 2.289062-2.972656 5.726562-1.734375 8.71875 1.238281 2.988281 4.15625 4.9375 7.390625 4.9375h464c2.949219 0 5.660156-1.625 7.054688-4.226562 1.390624-2.601563 1.238281-5.757813-.398438-8.210938zm-80.582031-126.355469c15.472656-18.058593 29.214843-31.84375 40.667969-42.199219-11.699219 21.363282-22.742188 48.953126-22.742188 76.992188 0 10.210938.296875 19.753906.578125 26.882812-.292969.289063-.546875.613282-.835937.90625-2.269532 2.296876-4.464844 4.648438-6.53125 7.089844-.160157.1875-.304688.382813-.460938.570313-1.960938 2.339843-3.808594 4.726562-5.585938 7.136719-.449218.609374-.894531 1.210937-1.332031 1.820312-1.8125 2.527344-3.546875 5.0625-5.160156 7.59375-.210937.332031-.402344.65625-.609375.988281-1.460938 2.316407-2.828125 4.605469-4.125 6.867188-.316406.554687-.636719 1.101562-.945312 1.652343-1.371094 2.445313-2.65625 4.832032-3.832032 7.132813-.191406.378906-.359375.722656-.546875 1.097656-1.035156 2.054688-1.984375 4.015625-2.863281 5.894531-.191406.414063-.386719.820313-.574219 1.222657-.941406 2.050781-1.785156 3.960937-2.527343 5.710937-.132813.3125-.238282.570313-.363282.871094-.65625 1.558594-1.226562 2.964844-1.714844 4.203125-.039062.105469-.105468.257813-.144531.359375h-10.828125c-.003906-.132812-.007812-.289062-.015625-.425781-.054687-1.394531-.113281-2.96875-.164062-4.699219-.011719-.28125-.019531-.558594-.027344-.851562-.121094-4.078126-.21875-8.992188-.25-14.609376-.003906-.253906-.003906-.507812-.007813-.765624-.023437-5.625.023438-11.949219.179688-18.808594.011719-.582032.027344-1.175782.042969-1.765625.078125-2.976563.175781-6.058594.300781-9.21875.019531-.550781.035156-1.078125.058594-1.632813.132812-3.207031.304687-6.539062.492187-9.910156.09375-1.695312.203125-3.421875.316407-5.152344.097656-1.53125.207031-3.09375.320312-4.65625.121094-1.691406.246094-3.394531.382812-5.117187 7.992188-16.960938 17.695313-32.15625 28.847657-45.179688zm-27.601563-241.738281c-26.410156 37.4375-60.089844 95.28125-82.144531 170.265625-7.132813 24.148437-13.238281 47.949219-18.136719 70.683594-.238281 1.070312-.472656 2.132812-.703125 3.1875-.476562-1.375-1-2.789063-1.484375-4.167969-.921875-2.617188-1.871094-5.257812-2.816406-7.898438-1.957031-5.460937-3.964844-10.964843-6.027344-16.523437-1.011718-2.726563-2.019531-5.445313-3.058594-8.195313-2.460937-6.523437-5.003906-13.109374-7.609374-19.75-.636719-1.628906-1.242188-3.226562-1.890626-4.863281-2.996093-7.570312-6.066406-15.199219-9.238281-22.898437 3.011719-4.941406 6.054688-9.921875 9.359375-14.972656 4.59375-7.128907 9.265625-14.019532 13.859375-20.667969 0-.003907 0-.003907.003907-.007813 40.515624-58.585937 80.242187-98.703125 109.886718-124.191406zm-118.554687-45.304688c-3.203125 41.714844-6.953125 104.824219-5.964844 162.535157-4.210937 6.125-8.472656 12.445312-12.648437 18.921875-1.199219 1.835937-2.378907 3.671875-3.539063 5.5-2.546875-5.90625-5.289063-11.753906-8.085937-17.566406-.464844-.972657-.875-1.960938-1.34375-2.929688-3.390626-6.933594-6.941407-13.785156-10.644532-20.511719 12.714844-64.371093 29.453125-113.894531 42.226563-145.949219zm-202.878907 131.265626c28.746094 18.703124 66.097657 46.480468 95.316407 80.222656 3.242187 3.625 6.328125 7.410156 9.328125 11.257812 8.667968 11.140625 16.835937 24.339844 24.332031 39.320313 2.398437 4.644531 4.660156 9.40625 6.753906 14.222656 1.6875 3.785156 3.292969 7.609375 4.851563 11.445313.496094 1.21875.96875 2.445312 1.453125 3.667968 1.050781 2.660156 2.082031 5.324219 3.074219 7.992188.507812 1.351562 1.003906 2.707031 1.496093 4.058594.96875 2.683593 1.90625 5.359374 2.820313 8.03125.402344 1.179687.820312 2.367187 1.214844 3.546874 1.253906 3.765626 2.46875 7.519532 3.613281 11.230469.09375.308594.179687.609375.273437.917969 1.058594 3.453125 2.066406 6.867188 3.03125 10.238281.34375 1.214844.671875 2.40625 1.007813 3.609375.6875 2.46875 1.359375 4.917969 2 7.328125.335937 1.265625.667969 2.527344.992187 3.777344.625 2.417969 1.222656 4.796875 1.796875 7.136719.257813 1.042968.527344 2.105468.773438 3.128906.785156 3.261719 1.535156 6.457031 2.222656 9.527344.105469.460937.191406.882812.292969 1.339844.589844 2.632812 1.144531 5.195312 1.664062 7.660156.21875 1.050781.421875 2.050781.628906 3.0625.375 1.828125.738282 3.617187 1.074219 5.332031.195313.992187.390625 1.980469.570313 2.933594.328125 1.695312.628906 3.3125.914062 4.875.136719.746093.285156 1.535156.414063 2.25.382812 2.128906.734375 4.144531 1.042969 5.964843.09375.558594.167968 1.015626.253906 1.542969.171875 1.042969.332031 2.03125.480468 2.949219h-64.839843c-.289063-.914062-.613281-1.933594-.96875-3.042969-.074219-.234375-.164063-.507812-.242188-.75-.332031-1.027343-.683593-2.109375-1.0625-3.277343-.179687-.554688-.371093-1.132813-.5625-1.714844-.320312-.980469-.65625-1.992188-1.007812-3.054688-.214844-.652344-.429688-1.296875-.65625-1.976562-.410157-1.230469-.839844-2.511719-1.285157-3.828125-.195312-.570313-.375-1.113281-.578124-1.703125-.652344-1.921875-1.332032-3.914063-2.054688-5.996094-.125-.367188-.265625-.757812-.394531-1.128906-.597657-1.722656-1.214844-3.484375-1.855469-5.296875-.269531-.761719-.546875-1.539063-.824219-2.3125-.539062-1.515625-1.089843-3.050781-1.65625-4.617188-.308593-.855469-.617187-1.707031-.9375-2.578125-.625-1.71875-1.269531-3.460937-1.921875-5.226562-.253906-.679688-.496094-1.34375-.75-2.027344-.921875-2.46875-1.867187-4.964844-2.839844-7.5-.175781-.460938-.359374-.925781-.539062-1.386719-.800781-2.078125-1.613281-4.171875-2.449219-6.28125-.332031-.847656-.675781-1.699219-1.015625-2.550781-.710937-1.789062-1.433594-3.582031-2.167968-5.378906-.367188-.90625-.734376-1.804688-1.105469-2.707032-.785157-1.90625-1.582031-3.808593-2.386719-5.714843-.308594-.722657-.609375-1.449219-.917969-2.171875-1.074219-2.515625-2.160156-5.027344-3.265625-7.523438-4.1875-32.375-11.222656-62.308594-20.921875-88.984375-15.605469-42.96875-36.625-76.449219-54.480469-99.839843zm-10.789062 108.101562c17.113281 9.460938 37.378906 24.414062 50.925781 46.644531 6.238281 10.183594 12.75 22.890625 19.902344 38.828125.074219.21875.160156.4375.253906.648438 1.609375 3.609375 3.171875 7.261718 4.714844 10.914062.414063.984375.824219 1.964844 1.234375 2.949219 1.3125 3.152344 2.601562 6.304687 3.855469 9.4375.195312.492187.398437.988281.59375 1.476563 1.414062 3.558593 2.78125 7.078124 4.105469 10.546874.371093.96875.730468 1.925782 1.09375 2.886719 1.050781 2.78125 2.070312 5.523438 3.054687 8.203125.265625.722656.542969 1.464844.804687 2.179688 1.179688 3.230468 2.300782 6.367187 3.371094 9.386718.285156.808594.554688 1.582032.832032 2.371094.820312 2.34375 1.605468 4.609375 2.351562 6.777344.257812.757812.527344 1.539062.777344 2.273438.875 2.566406 1.699218 5.011718 2.449218 7.265624.234376.714844.445313 1.351563.667969 2.03125.523438 1.578126 1.011719 3.074219 1.460938 4.449219.128906.40625.261719.808594.386719 1.199219h-14.222657c-.007812-.035156-.023437-.082031-.03125-.117188-.257812-1.125-.597656-2.386718-.988281-3.71875-.117188-.398437-.246094-.804687-.375-1.21875-.355469-1.140624-.769531-2.339843-1.230469-3.605468-.152343-.421875-.289062-.816406-.457031-1.25-.640625-1.667969-1.371094-3.421875-2.226562-5.277344-.15625-.34375-.347657-.707031-.511719-1.054688-.738281-1.558593-1.5625-3.175781-2.46875-4.851562-.320313-.59375-.652344-1.1875-.996094-1.796875-.984375-1.742187-2.0625-3.53125-3.238281-5.378906-.257813-.402344-.480469-.785157-.746094-1.191407-1.449219-2.214843-3.066406-4.503906-4.824219-6.851562-.449219-.597656-.945312-1.207031-1.414062-1.8125-1.433594-1.851562-2.972657-3.738281-4.613281-5.660156-.613282-.714844-1.214844-1.425782-1.859376-2.152344-2.238281-2.53125-4.601562-5.09375-7.226562-7.71875-2.988281-2.992188-6.277344-5.832031-9.703125-8.574219-.34375-.277343-.628906-.59375-.980469-.867187-2.335937-15.128906-6.105468-29.464844-11.480468-43.707032-10.617188-28.355468-22.738282-49.113281-33.242188-63.664062zm-2.234375 99.011719c10.535156 4.148437 22.644531 10.109375 33.933594 18.480469.253906.246093.523437.472656.808593.6875 4.191407 3.101562 8.085938 6.449218 11.585938 9.945312 2.089844 2.089844 3.996094 4.132812 5.804688 6.140625.546874.609375 1.050781 1.203125 1.574218 1.804687 1.222656 1.410157 2.398438 2.796876 3.492188 4.15625.503906.628907 1 1.25 1.480468 1.867188 1.089844 1.40625 2.105469 2.78125 3.0625 4.128906.320313.449219.667969.910156.972657 1.351563 1.222656 1.777343 2.351562 3.503906 3.359375 5.15625.128906.214843.230468.410156.355468.617187.867188 1.449219 1.65625 2.847656 2.375 4.191406.230469.4375.441407.855469.660157 1.28125.570312 1.117188 1.097656 2.199219 1.574219 3.234376.171874.375.347656.753906.507812 1.121093.523438 1.1875.996094 2.328125 1.402344 3.398438.046875.117187.101562.25.148437.371093.464844 1.25.859375 2.414063 1.1875 3.480469.007813.015625.007813.027344.015625.042969h-85.886718c7.285156-11.046875 15.570312-28.007812 15.570312-48 0-9.585938-1.570312-17.285156-3.984375-23.457031zm202.933594 71.457031c-.058594-.398438-.144531-.910156-.210938-1.339844-.054687-.378906-.117187-.753906-.179687-1.15625-.199219-1.273437-.425782-2.652344-.671875-4.152344-.089844-.546874-.175781-1.054687-.269531-1.628906-.28125-1.652344-.589844-3.429687-.925782-5.304687-.089844-.492188-.164062-.933594-.253906-1.445313-.441406-2.441406-.925781-5.023437-1.460938-7.785156-.039062-.203125-.085937-.425781-.125-.625-.480468-2.464844-1-5.046875-1.558593-7.734375-.199219-.960937-.417969-1.964844-.628907-2.953125-.433593-2.046875-.882812-4.117188-1.363281-6.269531-.265625-1.195313-.542969-2.402344-.824219-3.628907-.476562-2.09375-.980468-4.230468-1.503906-6.410156-.308594-1.292968-.613281-2.566406-.9375-3.886718-.585937-2.371094-1.207031-4.792969-1.839844-7.242188-.300781-1.167969-.585937-2.300781-.898437-3.484375-.960937-3.628906-1.96875-7.316406-3.042969-11.078125-.121094-.429688-.261718-.875-.386718-1.304688-.960938-3.335937-1.964844-6.714843-3.015626-10.128906-.402343-1.300781-.828124-2.613281-1.242187-3.925781-.824219-2.597656-1.664063-5.203125-2.539063-7.835937-.503906-1.507813-1.019531-3.011719-1.542968-4.527344-.863282-2.511719-1.753906-5.027344-2.667969-7.554688-.550781-1.527344-1.101563-3.046875-1.675781-4.574218-1.003906-2.691407-2.050782-5.375-3.117188-8.070313-.527344-1.328125-1.035156-2.660156-1.578125-3.988281-1.628906-4-3.308593-7.988282-5.074219-11.953125-2.207031-5.078125-4.625-10.167969-7.136718-15.03125-7.917969-15.828125-16.652344-29.921875-25.96875-41.902344-2.753906-3.527344-5.570313-6.996094-8.492188-10.355469-3.679687-20.933594-8.445312-40.808594-14.179687-59.109375-16.148438-51.695312-33.59375-86.875-48.957031-110.597656 29.675781 23.3125 67.550781 61.023437 99.617187 118.328125 8.242187 14.75 15.757813 30.148438 22.332031 45.765625l4.378906 10.511719c15.269532 36.847656 28.578126 72.328125 39.578126 105.519531.972656 2.851563 1.859374 5.613281 2.722656 8.359375-.136719.800781-.234375 1.503906-.367188 2.296875-.6875 4.09375-1.320312 8.050781-1.894531 11.875-.210937 1.421875-.417969 2.820313-.617187 4.199219-.566407 3.941406-1.078126 7.746094-1.53125 11.382812-.070313.582032-.160157 1.210938-.230469 1.785156-.5 4.144532-.914063 8.035157-1.285157 11.777344-.105468 1.070313-.195312 2.085938-.289062 3.125-.261719 2.84375-.492188 5.5625-.683594 8.164063-.0625.84375-.136718 1.714843-.191406 2.539062-.21875 3.191407-.394531 6.210938-.523438 9.015625-.027343.605469-.039062 1.136719-.066406 1.722656-.089844 2.261719-.160156 4.394532-.203125 6.390626-.015625.710937-.03125 1.394531-.039062 2.070312-.03125 2.078125-.046875 4.023438-.035157 5.789062v.65625c.015626 1.960938.058594 3.664063.109376 5.230469.003906.144531.003906.339844.007812.480469zm32.542969 0c-.007813-.210938-.015626-.4375-.023438-.65625-.039062-1.15625-.066406-2.464844-.085938-3.890625-.007812-.410156-.015624-.785156-.019531-1.21875-.015625-1.832031-.007812-3.878906.027344-6.105469.003906-.488281.019531-1.03125.03125-1.535156.039063-1.945312.105469-4.046875.195313-6.273438.023437-.644531.046874-1.261718.078124-1.929687.125-2.789063.292969-5.773437.515626-8.980469.035156-.554687.089843-1.164062.128906-1.730468.207031-2.785157.453125-5.742188.742187-8.828126.085938-.921874.167969-1.835937.261719-2.785156.375-3.769531.796875-7.703125 1.308594-11.898437.054687-.441407.125-.925781.179687-1.375.472657-3.796875 1.023438-7.800781 1.625-11.941407.175781-1.199218.351563-2.40625.539063-3.632812.71875-4.765625 1.5-9.675781 2.40625-14.882812.023437-.125.039062-.257813.054687-.398438l1.199219-6.910156c.75-3.894532 1.535156-7.925782 2.382812-12.089844.113282-.5625.25-1.164062.367188-1.734375.699219-3.410156 1.433594-6.890625 2.226562-10.476563 16.820313-35.746093 38.496094-69.230468 64.441407-99.519531 21.710937-25.335937 50.039062-47.292969 74.339843-63.636719-16.382812 21.230469-34.355468 50.3125-47.933593 87.699219-11.609375 31.957031-19.378907 70.441407-23.09375 114.46875-.332031 4.042969-.609375 7.976563-.859375 11.851563-.066406 1.039062-.128906 2.058594-.191406 3.082031-.199219 3.386719-.378907 6.707031-.523438 9.9375-.019531.40625-.042969.828125-.0625 1.230469-.15625 3.578125-.269531 7.015625-.367188 10.367187-.023437.921875-.046874 1.8125-.066406 2.714844-.070312 2.75-.121094 5.417969-.152344 7.988281-.007812.570313-.019531 1.160156-.027343 1.722656-.03125 2.988282-.039063 5.816407-.03125 8.53125 0 .761719.007812 1.46875.011719 2.207032.011718 2.136718.03125 4.171875.0625 6.105468.007812.550782.011718 1.121094.023437 1.65625.039063 2.292969.089844 4.410157.144531 6.371094.015625.550782.03125 1.027344.050782 1.550782.046874 1.503906.09375 2.890624.144531 4.164062.007812.238281.019531.550781.027343.78125zm124.269531 0c.042969-.101562.09375-.214844.136719-.316406.605468-1.390625 1.289062-2.902344 2.019531-4.484375.164062-.355469.332031-.710938.5-1.074219.824219-1.746094 1.703125-3.566406 2.667969-5.476562.03125-.058594.054687-.113282.085937-.171876 1.039063-2.046874 2.167969-4.179687 3.375-6.355468.125-.222656.257813-.449219.382813-.671875 1.070312-1.917969 2.214843-3.871094 3.414062-5.839844.21875-.359375.433594-.71875.660156-1.082031 2.730469-4.410156 5.777344-8.882813 9.136719-13.214844.273437-.351562.558594-.695312.835937-1.046875 1.40625-1.773437 2.871094-3.511719 4.382813-5.214844.394531-.445312.785156-.890625 1.1875-1.332031 1.839844-2.003906 3.738281-3.957031 5.726563-5.800781 1.9375-1.871094 4.074218-3.675781 6.527343-5.519531 6.375-4.78125 11.71875-8.546876 16.175781-11.515626-2.808593 6.925782-4.976562 14.4375-4.976562 21.117188 0 20.101562 5.804688 37.175781 10.703125 48zm0 0" fill="url(#a)"/></svg>