<svg height="495pt" viewBox="0 -7 495.99646 495" width="495pt" xmlns="http://www.w3.org/2000/svg" xmlns:xlink="http://www.w3.org/1999/xlink"><linearGradient id="a" gradientUnits="userSpaceOnUse" x1="50.857312" x2="441.142672" y1="526.67047" y2="136.385118"><stop offset="0" stop-color="#fcee21"/><stop offset="1" stop-color="#39b54a"/></linearGradient><path d="m494.804688 428.292969c-1.460938-2.355469-4.03125-3.792969-6.804688-3.792969-.789062 0-19.523438.207031-37.65625 18.34375-3.363281 3.359375-5.964844 6.367188-8.214844 9.179688-2.714844-5.386719-6.578125-11.285157-12.472656-17.179688-1.886719-1.890625-3.777344-3.476562-5.65625-4.996094v-21.347656h24c22.054688 0 40-17.945312 40-40v-16c0-4.417969-3.578125-8-8-8h-.203125c5.074219-6.707031 8.203125-14.960938 8.203125-24v-16c0-4.417969-3.578125-8-8-8h-32c-9.039062 0-17.292969 3.125-24 8.203125v-28.328125c3.105469 3.703125 7.121094 6.644531 11.804688 8.4375 3.359374 1.28125 6.859374 1.914062 10.328124 1.914062 5.984376 0 11.890626-1.871093 16.890626-5.503906 7.90625-5.746094 12.320312-15.007812 11.828124-24.785156-.5-9.785156-5.851562-18.566406-14.34375-23.496094l-7.863281-4.535156 9.027344.957031h.03125c.992187.101563 1.976563.152344 2.960937.152344 8.671876 0 16.890626-3.890625 22.421876-10.738281 6.148437-7.617188 8.015624-17.707032 5-27-3.023438-9.289063-10.460938-16.355469-19.914063-18.902344-9.46875-2.550781-19.476563-.175781-26.789063 6.375l-6.734374 6.070312 3.695312-8.28125c.007812-.007812.007812-.015624.015625-.027343 3.953125-8.953125 3.117187-19.207031-2.234375-27.417969-5.335938-8.199219-14.359375-13.09375-24.125-13.09375s-18.789062 4.894531-24.125 13.09375c-5.351562 8.210938-6.1875 18.464844-2.21875 27.445312l3.695312 8.28125-6.734374-6.070312c-.007813-.007812-.015626-.011719-.023438-.019531-7.296875-6.53125-17.3125-8.914063-26.765625-6.355469-9.453125 2.546875-16.890625 9.613281-19.914063 18.902344-3.015624 9.292968-1.148437 19.382812 5 27 5.53125 6.847656 13.742188 10.738281 22.429688 10.738281.992188 0 1.984375-.050781 2.984375-.152344l9.027344-.957031-7.863281 4.535156c-.007813.003906-.015626.007813-.023438.011719-8.46875 4.917969-13.820312 13.699219-14.320312 23.484375-.492188 9.777344 3.921874 19.039062 11.828124 24.785156 5 3.632813 10.90625 5.503906 16.890626 5.503906 3.46875 0 6.96875-.632812 10.328124-1.914062 4.683594-1.792969 8.695313-4.730469 11.804688-8.441406v28.332031c-6.707031-5.078125-14.960938-8.203125-24-8.203125h-32c-4.421875 0-8 3.582031-8 8v16c0 9.039062 3.128906 17.292969 8.203125 24h-.203125c-4.421875 0-8 3.582031-8 8v16c0 22.054688 17.945312 40 40 40h24v11.796875c-8.941406-3.621094-15.542969-3.796875-16-3.796875-3.695312 0-6.914062 2.535156-7.78125 6.128906-.859375 3.59375.851562 7.3125 4.140625 8.996094.09375.046875 9.585937 5.226562 11.75 18.191406 1.167969 7.035156-.621094 11.34375-2.246094 13.667969-2.90625-7.957031-9.753906-20.160156-25.722656-29.828125-2.703125-1.640625-6.117187-1.53125-8.71875.28125-2.59375 1.8125-3.882813 4.984375-3.273437 8.089844 2.191406 11.28125-10.359376 18.855468-16.148438 21.707031v-7.234375c0-4.152344 4.273438-14.640625 7.15625-20.425781 1.234375-2.480469 1.101562-5.425781-.351562-7.78125-1.460938-2.355469-4.03125-3.792969-6.804688-3.792969-.789062 0-19.523438.207031-37.65625 18.34375-3.363281 3.359375-5.964844 6.367188-8.214844 9.179688-2.714844-5.386719-6.578125-11.285157-12.472656-17.179688-11.089844-11.09375-22.359375-15.445312-29.65625-17.179688v-41.164062h24c22.054688 0 40-17.945312 40-40v-16c0-4.417969-3.578125-8-8-8h-8.246094c9.800782-7.300781 16.246094-18.871094 16.246094-32v-16c0-4.417969-3.578125-8-8-8h-.203125c5.074219-6.707031 8.203125-14.960938 8.203125-24v-16c0-4.417969-3.578125-8-8-8h-.203125c5.074219-6.707031 8.203125-14.960938 8.203125-24v-16c0-4.417969-3.578125-8-8-8h-.203125c5.074219-6.707031 8.203125-14.960938 8.203125-24v-16c0-4.417969-3.578125-8-8-8h-32c-9.039062 0-17.292969 3.125-24 8.203125v-24.203125h24c22.054688 0 40-17.945312 40-40v-16c0-2.121094-.84375-4.15625-2.34375-5.65625l-32-32c-3.125-3.125-8.1875-3.125-11.3125 0l-10.34375 10.34375-10.34375-10.34375c-3.125-3.125-8.1875-3.125-11.3125 0l-10.34375 10.34375-10.34375-10.34375c-3.125-3.125-8.1875-3.125-11.3125 0l-32 32c-1.5 1.5-2.34375 3.535156-2.34375 5.65625v16c0 22.054688 17.945312 40 40 40h24v24.203125c-6.707031-5.078125-14.960938-8.203125-24-8.203125h-32c-4.421875 0-8 3.582031-8 8v16c0 9.039062 3.128906 17.292969 8.203125 24h-.203125c-4.421875 0-8 3.582031-8 8v16c0 9.039062 3.128906 17.292969 8.203125 24h-.203125c-4.421875 0-8 3.582031-8 8v16c0 9.039062 3.128906 17.292969 8.203125 24h-.203125c-4.421875 0-8 3.582031-8 8v16c0 13.128906 6.445312 24.699219 16.246094 32h-8.246094c-4.421875 0-8 3.582031-8 8v16c0 22.054688 17.945312 40 40 40h24v66.183594c-3.253906-3.113282-7.15625-6.183594-11.859375-9.027344-2.703125-1.640625-6.117187-1.53125-8.71875.28125-2.59375 1.8125-3.882813 4.984375-3.273437 8.089844 2.191406 11.28125-10.359376 18.855468-16.148438 21.707031v-7.234375c0-4.152344 4.273438-14.640625 7.15625-20.425781 1.234375-2.480469 1.101562-5.425781-.351562-7.78125-1.460938-2.355469-4.03125-3.792969-6.804688-3.792969-.789062 0-19.523438.207031-37.65625 18.34375-3.363281 3.359375-5.964844 6.367188-8.214844 9.179688-2.714844-5.386719-6.578125-11.285157-12.472656-17.179688-18.132812-18.136719-36.867188-18.34375-37.65625-18.34375-3.695312 0-6.914062 2.535156-7.78125 6.128906-.859375 3.59375.851562 7.3125 4.140625 8.996094.09375.046875 9.585937 5.226562 11.75 18.191406 1.167969 7.035156-.621094 11.34375-2.246094 13.667969-2.660156-7.277344-8.644531-18.101563-21.863281-27.296875v-27.6875h24c22.054688 0 40-17.945312 40-40v-16c0-4.417969-3.578125-8-8-8h-.203125c5.074219-6.707031 8.203125-14.960938 8.203125-24v-16c0-4.417969-3.578125-8-8-8h-32c-9.039062 0-17.292969 3.125-24 8.203125v-28.328125c3.105469 3.703125 7.121094 6.644531 11.804688 8.4375 3.359374 1.28125 6.859374 1.914062 10.328124 1.914062 5.984376 0 11.890626-1.871093 16.890626-5.503906 7.90625-5.746094 12.320312-15.007812 11.828124-24.785156-.5-9.785156-5.851562-18.566406-14.320312-23.484375-.007812-.003906-.015625-.007813-.023438-.011719l-7.867187-4.535156 9.0625.957031c.992187.101563 1.976563.152344 2.960937.152344 8.671876 0 16.890626-3.890625 22.421876-10.738281 6.148437-7.617188 8.015624-17.707032 5-27-3.023438-9.289063-10.460938-16.355469-19.914063-18.902344-9.460937-2.550781-19.46875-.175781-26.765625 6.355469-.007812.007812-.015625.011719-.023438.019531l-6.726562 6.0625 3.703125-8.300781c3.953125-8.953125 3.117187-19.207031-2.234375-27.417969-5.335938-8.199219-14.359375-13.09375-24.125-13.09375s-18.789062 4.894531-24.125 13.09375c-5.351562 8.210938-6.1875 18.464844-2.234375 27.417969.007813.011719.007813.019531.015625.027343l3.695312 8.28125-6.757812-6.089843c-7.296875-6.53125-17.3125-8.914063-26.765625-6.355469-9.453125 2.546875-16.890625 9.613281-19.914063 18.902344-3.015624 9.292968-1.148437 19.382812 5 27 5.53125 6.847656 13.75 10.738281 22.421876 10.738281.976562 0 1.96875-.050781 2.960937-.152344h.03125l9.023437-.957031-7.882812 4.546875c-8.46875 4.917969-13.820312 13.699219-14.320312 23.484375-.492188 9.777344 3.921874 19.039062 11.828124 24.785156 5 3.632813 10.90625 5.503906 16.890626 5.503906 3.46875 0 6.96875-.632812 10.328124-1.914062 4.683594-1.792969 8.699219-4.734375 11.804688-8.4375v28.328125c-6.707031-5.078125-14.960938-8.203125-24-8.203125h-32c-4.421875 0-8 3.582031-8 8v16c0 9.039062 3.128906 17.292969 8.203125 24h-.203125c-4.421875 0-8 3.582031-8 8v16c0 22.054688 17.945312 40 40 40h24v39.183594c-1.960938 8.167968-11.242188 13.707031-16 16.050781v-7.234375c0-4.152344 4.273438-14.640625 7.15625-20.425781 1.234375-2.480469 1.101562-5.425781-.351562-7.78125-1.460938-2.355469-4.03125-3.792969-6.804688-3.792969-.789062 0-19.523438.207031-37.65625 18.34375-17.023438 17.019531-18.34375 27.003906-18.34375 29.65625 0 4.417969 3.578125 8 8 8h472c4.421875 0 8-3.582031 8-8v-16c0-4.152344 4.273438-14.640625 7.15625-20.425781 1.234375-2.480469 1.101562-5.425781-.351562-7.78125zm-75.75-218.257813c.761718.320313 1.421874.785156 2.011718 1.324219.058594.070313.070313.15625.128906.226563.742188.855468 1.273438 1.773437 1.578126 2.703124.304687.949219.414062 2.011719.320312 3.164063-.027344.363281.101562.6875.121094 1.042969-.035156.171875-.054688.351562-.105469.519531-.265625.316406-.605469.539063-.828125.90625-.585938.96875-1.296875 1.757813-2.085938 2.335937-.796874.582032-1.773437 1.007813-2.898437 1.273438-.480469.113281-.859375.398438-1.296875.59375-.4375-.195312-.816406-.480469-1.296875-.59375-1.125-.265625-2.101563-.691406-2.875-1.253906-.8125-.597656-1.523437-1.386719-2.109375-2.355469-.222656-.367187-.5625-.59375-.832031-.910156-.046875-.167969-.066407-.34375-.101563-.515625.019532-.355469.148438-.679688.121094-1.042969-.09375-1.152344.015625-2.214844.3125-3.136719.3125-.957031.84375-1.875 1.585938-2.730468.0625-.074219.074218-.167969.132812-.238282.589844-.535156 1.242188-.996094 1.992188-1.308594 2.089843-.875 4.039062-.875 6.125-.003906zm52.945312 158.464844c0 13.234375-10.765625 24-24 24h-24v-8c0-13.234375 10.765625-24 24-24h24zm-24-56h24v8c0 13.234375-10.765625 24-24 24h-24v-8c0-13.234375 10.765625-24 24-24zm10.867188-55.246094c.226562 4.417969-1.6875 8.433594-5.25 11.023438-3.554688 2.582031-7.96875 3.160156-12.101563 1.589844-4.140625-1.585938-7.054687-4.972657-7.992187-9.292969l-5.03125-23.746094c1.035156-.652344 1.980468-1.40625 2.898437-2.207031l21.109375 12.167968c3.820312 2.222657 6.140625 6.035157 6.367188 10.464844zm-2.789063-66.101562c3.296875-2.941406 7.648437-3.980469 11.929687-2.828125 4.273438 1.148437 7.5 4.210937 8.859376 8.398437 1.359374 4.1875.546874 8.5625-2.226563 12.003906-2.789063 3.441407-6.898437 5.167969-11.289063 4.722657l-24.667968-2.609375c-.28125-1.050782-.632813-2.070313-1.050782-3.066406zm-50.796875-32.824219c2.40625-3.703125 6.320312-5.828125 10.71875-5.828125s8.3125 2.125 10.71875 5.828125c2.421875 3.714844 2.789062 8.164063 1.007812 12.210937l-10.210937 22.890626c-.367187-.027344-.734375.003906-1.097656 0-.277344-.007813-.550781-.007813-.828125 0-.367188.003906-.734375-.027344-1.105469 0l-10.203125-22.878907c-1.789062-4.050781-1.429688-8.503906 1-12.222656zm-36.609375 55.121094c-4.367187.46875-8.515625-1.269531-11.3125-4.722657-2.773437-3.441406-3.585937-7.816406-2.226563-12.003906 1.359376-4.1875 4.585938-7.25 8.859376-8.398437 1.148437-.3125 2.304687-.464844 3.4375-.464844 3.101562 0 6.070312 1.128906 8.484374 3.285156l18.453126 16.628907c-.417969.996093-.769532 2.015624-1.050782 3.066406zm21.8125 56.417969c-4.140625 1.570312-8.539063.992187-12.101563-1.589844-3.5625-2.589844-5.476562-6.605469-5.25-11.023438.226563-4.425781 2.546876-8.242187 6.367188-10.464844l21.109375-12.167968c.917969.800781 1.863281 1.554687 2.898437 2.207031l-5.03125 23.738281c-.929687 4.324219-3.84375 7.714844-7.992187 9.300782zm-30.484375 50.632812v-8h24c13.234375 0 24 10.765625 24 24v8h-24c-13.234375 0-24-10.765625-24-24zm0 48v-8h24c13.234375 0 24 10.765625 24 24v8h-24c-13.234375 0-24-10.765625-24-24zm101.65625 85.65625c4.421875-4.421875 8.789062-7.414062 12.65625-9.433594-1.328125 4.109375-2.3125 8.332032-2.3125 11.777344v8h-19.359375c2.023437-2.785156 4.90625-6.234375 9.015625-10.34375zm-31.40625 10.34375h-6.25v-11.625c3.109375 4.308594 5.109375 8.355469 6.25 11.625zm-55.890625-8.867188c3 3.121094 5.085937 6.191407 6.523437 8.867188h-11.84375c2.171876-2.660156 4.015626-5.621094 5.320313-8.867188zm-56.703125-1.476562c4.421875-4.421875 8.789062-7.414062 12.65625-9.433594-1.328125 4.109375-2.3125 8.332032-2.3125 11.777344v8h-19.359375c2.023437-2.785156 4.90625-6.234375 9.015625-10.34375zm-45.765625-6.972656c-.234375-1.425782-.53125-2.796875-.875-4.109375 1.101563.941406 2.210937 1.964843 3.328125 3.082031 6.773438 6.773438 10.1875 13.414062 11.90625 18.34375h-15.3125c1.492188-4.734375 2.085938-10.507812.953125-17.316406zm-15.78125 2.632812c.582031 3.496094.390625 6.253906-.109375 8.496094v-8.9375c.027344.15625.082031.28125.109375.441406zm-.109375-129.316406h.246094c-.085938.0625-.160156.136719-.246094.203125zm-16 .203125c-.085938-.066406-.160156-.140625-.246094-.203125h.246094zm64 15.796875c0 13.234375-10.765625 24-24 24h-24v-8c0-13.234375 10.765625-24 24-24h24zm0-56c0 13.234375-10.765625 24-24 24h-24v-8c0-13.234375 10.765625-24 24-24h24zm-48-24v-8c0-13.234375 10.765625-24 24-24h24v8c0 13.234375-10.765625 24-24 24zm0-48v-8c0-13.234375 10.765625-24 24-24h24v8c0 13.234375-10.765625 24-24 24zm24-80h24v8c0 13.234375-10.765625 24-24 24h-24v-8c0-13.234375 10.765625-24 24-24zm0-108.6875 24 24v12.6875c0 13.234375-10.765625 24-24 24h-.015625c.234375-.316406.40625-.675781.632813-.996094.457031-.648437.855468-1.328125 1.273437-2.007812.847656-1.359375 1.617187-2.757813 2.296875-4.222656.359375-.773438.703125-1.542969 1.011719-2.339844.605469-1.546875 1.078125-3.144532 1.488281-4.78125.1875-.746094.417969-1.46875.5625-2.234375.457031-2.414063.75-4.878907.75-7.417969v-16c0-2.121094-.84375-4.15625-2.34375-5.65625l-10.34375-10.34375zm-32 0 24 24v12.6875c0 13.234375-10.765625 24-24 24s-24-10.765625-24-24v-12.6875zm-32 60.6875c-13.234375 0-24-10.765625-24-24v-12.6875l24-24 4.6875 4.6875-10.34375 10.34375c-1.5 1.5-2.34375 3.535156-2.34375 5.65625v16c0 2.539062.292969 5.003906.75 7.417969.144531.765625.375 1.488281.5625 2.234375.410156 1.636718.882812 3.234375 1.488281 4.78125.308594.796875.652344 1.566406 1.011719 2.339844.679688 1.464843 1.449219 2.863281 2.296875 4.222656.417969.679687.816406 1.359375 1.273437 2.007812.226563.320313.398438.679688.632813.996094zm-24 56v-8h24c13.234375 0 24 10.765625 24 24v8h-24c-13.234375 0-24-10.765625-24-24zm0 48v-8h24c13.234375 0 24 10.765625 24 24v8h-24c-13.234375 0-24-10.765625-24-24zm0 48v-8h24c13.234375 0 24 10.765625 24 24v8h-24c-13.234375 0-24-10.765625-24-24zm0 40h24c13.234375 0 24 10.765625 24 24v8h-24c-13.234375 0-24-10.765625-24-24zm0 64v-8h24c13.234375 0 24 10.765625 24 24v8h-24c-13.234375 0-24-10.765625-24-24zm38.359375 119.132812c3 3.121094 5.085937 6.191407 6.523437 8.867188h-11.84375c2.171876-2.660156 4.015626-5.621094 5.320313-8.867188zm-56.703125-1.476562c4.421875-4.421875 8.789062-7.414062 12.65625-9.433594-1.328125 4.109375-2.3125 8.332032-2.3125 11.777344v8h-19.359375c2.023437-2.785156 4.90625-6.234375 9.015625-10.34375zm-45.765625-6.972656c-.234375-1.425782-.53125-2.796875-.875-4.109375 1.101563.941406 2.210937 1.964843 3.328125 3.082031 6.773438 6.773438 10.1875 13.414062 11.90625 18.34375h-15.3125c1.492188-4.734375 2.085938-10.507812.953125-17.316406zm-35.007813 17.316406h-4.882812v-6.90625c2.0625 2.425781 3.75 4.800781 4.882812 6.90625zm-19.976562-247.046875c-.09375-1.152344.015625-2.214844.3125-3.136719.3125-.957031.84375-1.875 1.585938-2.730468.0625-.074219.074218-.167969.136718-.238282.585938-.535156 1.238282-.996094 1.988282-1.308594 2.089843-.875 4.023437-.875 6.140624 0 .75.316407 1.40625.777344 1.992188 1.3125.058594.070313.070312.160157.132812.234376.742188.855468 1.273438 1.773437 1.578126 2.703124.304687.949219.414062 2.011719.320312 3.164063-.027344.363281.101562.6875.121094 1.042969-.035156.171875-.054688.351562-.105469.519531-.265625.316406-.605469.539063-.828125.90625-.585938.96875-1.296875 1.757813-2.085938 2.335937-.796874.582032-1.773437 1.007813-2.898437 1.273438-.480469.113281-.859375.398438-1.296875.59375-.4375-.195312-.816406-.480469-1.296875-.59375-1.125-.265625-2.101563-.691406-2.875-1.253906-.8125-.597656-1.523437-1.386719-2.109375-2.355469-.222656-.367187-.5625-.59375-.832031-.910156-.046875-.167969-.066407-.34375-.101563-.515625.019532-.355469.148438-.679688.121094-1.042969zm63.09375 151.046875c0 13.234375-10.765625 24-24 24h-24v-8c0-13.234375 10.765625-24 24-24h24zm-24-56h24v8c0 13.234375-10.765625 24-24 24h-24v-8c0-13.234375 10.765625-24 24-24zm10.867188-55.246094c.226562 4.417969-1.6875 8.433594-5.25 11.023438-3.554688 2.582031-7.96875 3.160156-12.101563 1.589844-4.148437-1.585938-7.0625-4.976563-7.984375-9.269532l-5.039062-23.769531c1.035156-.652344 1.980468-1.40625 2.898437-2.207031l21.109375 12.167968c3.820312 2.222657 6.140625 6.039063 6.367188 10.464844zm-2.78125-66.109375c3.296874-2.941406 7.632812-3.972656 11.921874-2.820312 4.273438 1.148437 7.5 4.210937 8.859376 8.398437 1.359374 4.1875.546874 8.5625-2.226563 12.003906-2.796875 3.453126-6.976563 5.15625-11.28125 4.722657l-24.675781-2.609375c-.28125-1.050782-.632813-2.070313-1.050782-3.066406zm-50.804688-32.816406c4.8125-7.40625 16.625-7.40625 21.4375 0 2.429688 3.71875 2.789062 8.171875 1.015625 12.195313l-10.210937 22.90625c-.507813-.035157-1.015626-.050782-1.523438-.050782s-1.007812.015625-1.515625.050782l-10.210937-22.890626c-1.78125-4.046874-1.414063-8.496093 1.007812-12.210937zm-36.632812 55.121094c-4.390626.453125-8.5-1.277344-11.289063-4.722657-2.773437-3.441406-3.585937-7.816406-2.226563-12.003906 1.359376-4.1875 4.585938-7.25 8.859376-8.398437 1.148437-.3125 2.304687-.464844 3.445312-.464844 3.101562 0 6.070312 1.128906 8.460938 3.273437l18.46875 16.640626c-.417969.996093-.769532 2.015624-1.050782 3.066406zm21.835937 56.417969c-4.140625 1.570312-8.539063.992187-12.101563-1.589844-3.5625-2.589844-5.476562-6.605469-5.25-11.023438.226563-4.429687 2.546876-8.242187 6.34375-10.453125l21.132813-12.179687c.917969.800781 1.863281 1.554687 2.898437 2.207031l-5.03125 23.746094c-.9375 4.320312-3.851562 7.707031-7.992187 9.292969zm-30.484375 50.632812v-8h24c13.234375 0 24 10.765625 24 24v8h-24c-13.234375 0-24-10.765625-24-24zm0 48v-8h24c13.234375 0 24 10.765625 24 24v8h-24c-13.234375 0-24-10.765625-24-24zm5.65625 85.65625c4.421875-4.421875 8.789062-7.414062 12.65625-9.433594-1.328125 4.109375-2.3125 8.332032-2.3125 11.777344v8h-19.359375c2.023437-2.785156 4.90625-6.234375 9.015625-10.34375zm0 0" fill="url(#a)"/></svg>