<svg height="512" viewBox="0 0 60 58" width="512" xmlns="http://www.w3.org/2000/svg"><g id="Page-1" fill="none" fill-rule="evenodd"><g id="087---Hanging-Basket" fill-rule="nonzero"><path id="Shape" d="m42.9 30.87-11.9-22.12v-2.75c0-.55228475-.4477153-1-1-1s-1 .44771525-1 1v2.75l-11.72 21.8c-.1497633.4564328.0461804.9548662.4666789 1.1871182.4204984.2322521.9467283.1326937 1.2533211-.2371182l11-20.39 11.14 20.71c.260462.4849278.8638534.66818 1.35.41.2355921-.1251081.4114349-.3391576.4884295-.5945543.0769946-.2553968.0487587-.53097-.0784295-.7654457z" fill="#3f5c6c"/><path id="Shape" d="m59 44c.0035188-1.5817914-1.2217235-2.8945509-2.8-3 .5464646-.6004914.8262003-1.3968358.7753195-2.2071596s-.4280326-1.5654218-1.0453195-2.0928404c0-.08 0-.17 0-.25 1.3748443-.6389556 2.270298-2.0002621 2.3126177-3.5157389.0423198-1.5154769-.7757686-2.9246341-2.1128123-3.6393193-1.3370438-.7146853-2.9632232-.6120538-4.1998054.2650582-.2067606-1.7514069-1.5361445-3.1607465-3.2725062-3.4693307s-3.4699376.5564098-4.2674938 2.1293307c-.180202-.2502968-.3997032-.469798-.65-.65-.5038898-.3716333-1.1138897-.5714608-1.74-.57-.7427157.0098775-1.4553594.294935-2 .8-.1368243-1.9254447-1.6291907-3.478508-3.5476546-3.6919433-1.918464-.2134352-3.7156808.9736514-4.2723454 2.8219433-.5654497-.5866556-1.3452005-.9180778-2.16-.9180778s-1.5945503.3314222-2.16.9180778c-.5117736-1.9081312-2.3399369-3.1568579-4.303515-2.9395153-1.9635782.2173426-3.4743979 1.8356514-3.556485 3.8095153-.5446406-.505065-1.2572843-.7901225-2-.8-.6386453-.0021884-1.2603968.2050621-1.77.59-.2502968.180202-.469798.3997032-.65.65-.7797298-1.6107383-2.5344491-2.5075912-4.2966658-2.1960648-1.76221675.3115265-3.10310059 1.7556232-3.2833342 3.5360648-.60258666-.369199-1.29338201-.5695297-2-.58-1.80528208.0177875-3.37489345 1.2426532-3.83089387 2.9894855-.45600042 1.7468324.31464803 3.5826093 1.88089387 4.4805145v.25c-.60832088.5297532-.97767333 1.2821641-1.02471087 2.0874468-.04703755.8052827.23220353 1.5955787.77471087 2.1925532-1.65685425 0-3 1.3431458-3 3s1.34314575 3 3 3c-.916742.9890842-1.06082599 2.4683237-.35218658 3.6157267.7086394 1.147403 2.0958151 1.6809321 3.39069378 1.304113s2.17917271-1.5713625 2.1614928-2.9198397c-.00367035-.3419492-.0680013-.6805332-.19-1h.19c.37594908.0029119.75017791-.051031 1.11-.16 2.4018337 6.1263718 8.3096329 10.1574827 14.89 10.16h10c6.5803671-.0025173 12.4881663-4.0336282 14.89-10.16.3598221.108969.7340509.1629119 1.11.16h.19c-.1219987.3194668-.1863296.6580508-.19 1-.0176799 1.3484772.8666141 2.5430206 2.1614928 2.9198397s2.6820544-.15671 3.3906938-1.304113.5645554-2.6266425-.3521866-3.6157267c1.5782765-.1054491 2.8035188-1.4182086 2.8-3z" fill="#f29c1f"/><circle id="Oval" cx="30" cy="3" fill="#f29c1f" r="3"/><path id="Shape" d="m27 46h-15.63c-.5522847 0-1-.4477153-1-1s.4477153-1 1-1h15.63c.5522847 0 1 .4477153 1 1s-.4477153 1-1 1z" fill="#e57e25"/><path id="Shape" d="m32 46h-1c-.5522847 0-1-.4477153-1-1s.4477153-1 1-1h1c.5522847 0 1 .4477153 1 1s-.4477153 1-1 1z" fill="#e57e25"/><path id="Shape" d="m56.2 47c.916742.9890842 1.060826 2.4683237.3521866 3.6157267s-2.0958151 1.6809321-3.3906938 1.304113-2.1791727-1.5713625-2.1614928-2.9198397c.0036704-.3419492.0680013-.6805332.19-1h-.19c-.3759491.0029119-.7501779-.051031-1.11-.16-1.5196969-.457053-2.6254876-1.7692761-2.8183225-3.3444557s.5637574-3.1153974 1.9283225-3.9255443c-.3564076-.14631-.692502-.3378838-1-.57-1.2590292-.9442719-2-2.4262135-2-4h-32c0 1.5737865-.7409708 3.0557281-2 4-.307498.2321162-.6435924.42369-1 .57 1.2271151.7084062 1.9878903 2.0131358 2 3.43.0030147.3377349-.0407338.6742616-.13 1-.3539496 1.367624-1.4030449 2.4471279-2.76 2.84-.35982209.108969-.73405092.1629119-1.11.16h-.19c.1219987.3194668.18632965.6580508.19 1 .01767991 1.3484772-.86661412 2.5430206-2.1614928 2.9198397s-2.68205438-.15671-3.39069378-1.304113c-.70863941-1.147403-.56455542-2.6266425.35218658-3.6157267-1.65685425 0-3-1.3431458-3-3s1.34314575-3 3-3c-.5464646-.6004914-.82620033-1.3968358-.77531953-2.2071596.05088079-.8103238.42803267-1.5654218 1.04531953-2.0928404 0-.08 0-.17 0-.25-1.37484426-.6389556-2.27029797-2.0002621-2.31261774-3.5157389-.04231977-1.5154769.7757686-2.9246341 2.11281236-3.6393193 1.33704377-.7146853 2.96322317-.6120538 4.19980538.2650582.20676055-1.7514069 1.5361445-3.1607465 3.2725062-3.4693307s3.4699376.5564098 4.2674938 2.1293307c.180202-.2502968.3997032-.469798.65-.65.5038898-.3716333 1.1138897-.5714608 1.74-.57.7427157.0098775 1.4553594.294935 2 .8.1368243-1.9254447 1.6291907-3.478508 3.5476546-3.6919433 1.918464-.2134352 3.7156808.9736514 4.2723454 2.8219433.5654497-.5866556 1.3452005-.9180778 2.16-.9180778s1.5945503.3314222 2.16.9180778c.5117736-1.9081312 2.3399369-3.1568579 4.303515-2.9395153 1.9635782.2173426 3.4743979 1.8356514 3.556485 3.8095153.5446406-.505065 1.2572843-.7901225 2-.8.6386453-.0021884 1.2603968.2050621 1.77.59.2502968.180202.469798.3997032.65.65.7797298-1.6107383 2.5344491-2.5075912 4.2966658-2.1960648 1.7622167.3115265 3.1031006 1.7556232 3.2833342 3.5360648.6025867-.369199 1.293382-.5695297 2-.58 1.8145306-.0046608 3.4048913 1.2126729 3.8741819 2.9654734s-.3000654 3.6019191-1.8741819 4.5045266v.25c.6012872.5367471.9613011 1.292868.9989239 2.0979942.0376227.8051262-.2503109 1.5915251-.7989239 2.1820058 1.6568542 0 3 1.3431458 3 3s-1.3431458 3-3 3z" fill="#26b99a"/><g fill="#14a085"><path id="Shape" d="m29 38c-.1062261.0137097-.2137739.0137097-.32 0-2.1652681-.7143208-3.6416467-2.7202699-3.68-5 0-.5522847.4477153-1 1-1s1 .4477153 1 1c.0568679 1.4049626.9825648 2.625925 2.32 3.06.2592014.0739762.4775615.24946.6055801.486671.1280187.2372111.154853.516058.0744199.773329-.1429939.4253709-.5518476.7033915-1 .68z"/><path id="Shape" d="m38 38c-.5522847 0-1-.4477153-1-1s.4477153-1 1-1c3 0 3-1.92 3-2 0-.5522847.4477153-1 1-1s1 .4477153 1 1c0 1.38-1 4-5 4z"/><path id="Shape" d="m19 38c-1.0699851.0307097-2.1053413-.3808482-2.8622466-1.1377534-.7569052-.7569053-1.1684631-1.7922615-1.1377534-2.8622466 0-.5522847.4477153-1 1-1s1 .4477153 1 1c-.0357639.5406059.1634371 1.0703595.5465388 1.4534612s.9128553.5823027 1.4534612.5465388c.5522847 0 1 .4477153 1 1s-.4477153 1-1 1z"/></g><path id="Shape" d="m48 40h-36c1.2590292-.9442719 2-2.4262135 2-4h32c0 1.5737865.7409708 3.0557281 2 4z" fill="#f0c419"/></g></g></svg>