<svg height="481pt" viewBox="0 0 481.65605 481" width="481pt" xmlns="http://www.w3.org/2000/svg" xmlns:xlink="http://www.w3.org/1999/xlink"><linearGradient id="a" gradientUnits="userSpaceOnUse" x1="55.439854" x2="415.292374" y1="499.012537" y2="139.160041"><stop offset="0" stop-color="#fcee21"/><stop offset="1" stop-color="#39b54a"/></linearGradient><path d="m248.066406 376.328125c0 4.417969-3.578125 8-8 8s-8-3.582031-8-8v-8.007813c0-4.417968 3.578125-8 8-8s8 3.582032 8 8zm-30.820312 24.582031c3.375 0 6.507812-2.152344 7.609375-5.53125 1.367187-4.199218-.9375-8.714844-5.132813-10.082031l-7.617187-2.476563c-4.242188-1.351562-8.71875.9375-10.085938 5.136719-1.367187 4.199219.9375 8.714844 5.132813 10.082031l7.617187 2.476563c.828125.265625 1.65625.394531 2.476563.394531zm2.25 14.113282-4.710938 6.480468c-2.601562 3.574219-1.8125 8.574219 1.765625 11.175782 1.421875 1.03125 3.0625 1.527343 4.695313 1.527343 2.476562 0 4.914062-1.144531 6.476562-3.296875l4.710938-6.480468c2.601562-3.574219 1.8125-8.574219-1.765625-11.175782-3.585938-2.601562-8.578125-1.808594-11.171875 1.769532zm41.140625 0c-2.585938-3.578126-7.59375-4.367188-11.171875-1.769532-3.578125 2.601563-4.367188 7.601563-1.765625 11.175782l4.710937 6.480468c1.5625 2.15625 4 3.296875 6.476563 3.296875 1.632812 0 3.273437-.496093 4.695312-1.527343 3.578125-2.601563 4.367188-7.601563 1.765625-11.175782zm7.390625-32.203126-7.617188 2.476563c-4.195312 1.367187-6.5 5.882813-5.132812 10.082031 1.101562 3.382813 4.234375 5.53125 7.609375 5.53125.820312 0 1.648437-.128906 2.476562-.394531l7.617188-2.476563c4.195312-1.367187 6.5-5.882812 5.132812-10.082031-1.375-4.207031-5.851562-6.492187-10.085937-5.136719zm-81.570313 46.121094-7.617187 2.476563c-4.195313 1.367187-6.5 5.882812-5.132813 10.082031 1.101563 3.382812 4.234375 5.53125 7.609375 5.53125.820313 0 1.648438-.128906 2.476563-.394531l7.617187-2.476563c4.195313-1.367187 6.5-5.882812 5.132813-10.082031-1.375-4.207031-5.84375-6.507813-10.085938-5.136719zm-4.453125-46.136718c3.578125-2.597657 4.375-7.601563 1.78125-11.175782l-4.703125-6.480468c-2.601562-3.570313-7.609375-4.382813-11.171875-1.773438-3.578125 2.59375-4.375 7.597656-1.78125 11.171875l4.703125 6.480469c1.570313 2.15625 4.007813 3.300781 6.484375 3.300781 1.625 0 3.273438-.496094 4.6875-1.523437zm120.8125 1.523437c2.476563 0 4.914063-1.144531 6.484375-3.300781l4.703125-6.480469c2.59375-3.574219 1.796875-8.578125-1.78125-11.171875-3.578125-2.613281-8.570312-1.800781-11.171875 1.773438l-4.703125 6.480468c-2.59375 3.574219-1.796875 8.578125 1.78125 11.175782 1.414063 1.027343 3.0625 1.523437 4.6875 1.523437zm3.609375 57.171875c1.367188-4.199219-.9375-8.714844-5.132812-10.082031l-7.617188-2.476563c-4.242187-1.363281-8.710937.9375-10.085937 5.136719-1.367188 4.199219.9375 8.714844 5.132812 10.082031l7.617188 2.476563c.828125.265625 1.65625.394531 2.476562.394531 3.375 0 6.507813-2.152344 7.609375-5.53125zm174.265625-184.386719c-1.578125 7.921875-5.214844 15.824219-10.222656 23.214844h1.597656c4.421875 0 8 3.582031 8 8v48c0 4.417969-3.578125 8-8 8h-8.886718l-15.167969 128.933594c-.476563 4.03125-3.890625 7.066406-7.945313 7.066406h-400c-4.054687 0-7.46875-3.035156-7.945312-7.066406l-15.167969-128.933594h-8.886719c-4.421875 0-7.9999998-3.582031-7.9999998-8v-48c0-4.417969 3.5781248-8 7.9999998-8h72v-19.445313c-4.578125 2.199219-9.714844 3.460938-15.375 3.460938-3.015625 0-6.164062-.320312-9.398437-.96875-12.210938-2.441406-24.539063-9.390625-34.710938-19.558594-22.203125-22.199218-27.179687-52.019531-11.320312-67.882812 15.859375-15.859375 45.679687-10.898438 67.882812 11.3125 1.425781 1.421875 2.625 2.972656 3.917969 4.472656 3.167969-9.789062 9.175781-19.71875 17.894531-28.476562 6.90625-6.832032 14.65625-12.066407 22.636719-15.574219 1.429688-6.371094 4.058594-12.707031 7.816406-18.339844 3.757813-5.585937 8.296875-10.308594 13.515625-14.054687 3.453125-2.613282 7.390625-4.78125 11.546875-6.519532-1.578125-6.617187-2.40625-13.453125-2.40625-20.425781 0-48.523437 39.476563-88 88-88 48.523438 0 88 39.476563 88 88 0 .824219-.074218 1.617187-.101562 2.4375 15.292968 13.492187 24.101562 32.75 24.101562 53.5625 0 6.589844-.882812 13.078125-2.617187 19.277344-4.472657 16.269531-14.742188 30.402343-28.464844 39.898437 11.035156-4.816406 25.300781-3.605468 39.136719 3.308594.558594-30.667969 17.882812-54.484375 39.945312-54.484375 22.429688 0 40 24.597656 40 56 0 2.46875-.273437 4.894531-.503906 7.328125 13.007812-2.492188 24.90625.34375 32.855469 8.277344.007812.007812.019531.007812.023437.015625 7.992188 7.988281 10.921875 19.765625 8.25 33.164062zm-47.917968-22.554687c-6.058594 2.851562-11.898438 6.996094-16.894532 11.988281-1.6875 1.691406-3.210937 3.4375-4.621094 5.210937-.441406.558594-.8125 1.128907-1.222656 1.691407-.703125.960937-1.351562 1.929687-1.972656 2.902343 0 .980469-.230469 1.890626-.554688 2.753907-.082031.21875-.167968.421875-.269531.632812-.382812.808594-.855469 1.5625-1.476562 2.191407-.019531.019531-.027344.042968-.046875.0625-.410156.40625-.882813.742187-1.375 1.054687-.5625 1.164063-1.179688 2.328125-1.628906 3.492187-.09375.246094-.214844.492188-.304688.734376-.742188 2.027343-1.277344 4.03125-1.664062 5.988281-.085938.425781-.148438.84375-.214844 1.265625-.300782 1.890625-.476563 3.746094-.425782 5.496094 0 .070312-.011718.148437-.007812.21875 0 .03125.011719.054687.015625.085937h4.644531l49.015625-49.019531c-5.800781-1.394532-13.21875-.320313-20.996093 3.25zm-88.707032 93.769531v-32h-208v32zm-45.320312 136 2.304687-3.179687c2.601563-3.578126 7.59375-4.382813 11.171875-1.773438.484375.347656.78125.832031 1.164063 1.261719l3.734375-31.757813c-2.058594-1.445312-3.492188-3.722656-3.492188-6.429687v-8.007813c0-3.738281 2.617188-6.734375 6.085938-7.613281l7.351562-62.5h-20.503906c-.066406.390625-.007812.78125-.136719 1.171875-1.101562 3.378906-4.234375 5.53125-7.609375 5.53125-.820312 0-1.648437-.128906-2.476562-.394531l-7.617188-2.476563c-2.03125-.664062-3.59375-2.085937-4.535156-3.832031h-88.238281c-.941407 1.746094-2.503907 3.167969-4.539063 3.832031l-7.617187 2.476563c-.828125.265625-1.65625.394531-2.476563.394531-3.375 0-6.507812-2.148438-7.609375-5.53125-.125-.390625-.070312-.78125-.132812-1.171875h-20.507813l7.355469 62.5c3.464844.875 6.082031 3.875 6.082031 7.613281v8.007813c0 2.707031-1.429687 4.984375-3.488281 6.429687l3.734375 31.757813c.378906-.429688.679688-.914063 1.160156-1.261719 3.5625-2.605469 8.570313-1.796875 11.171875 1.773438l2.308594 3.179687zm-197.992188-184 49.019532-49.019531c-2.515626-.605469-5.363282-.65625-8.363282-.335938-6.769531 4.167969-13.890625 7.027344-20.890625 8.390625-3.046875 2.109375-5.964843 4.511719-8.632812 7.179688-2.3125 2.3125-4.390625 4.738281-6.171875 7.210937-1.109375 1.535156-2.023438 3.101563-2.953125 4.675782l-1.617188 2.695312c-.710937 1.144531-1.242187 2.445312-1.78125 3.683594-1.210937 2.8125-2.0625 5.480468-2.601562 8.074218-.523438 2.496094-.757813 4.90625-.679688 7.1875 0 .074219.007813.164063.007813.257813zm39.152344-77.347656c-1.128906-.960938-2.167969-2.027344-3.222656-3.082031-.875-.871094-1.777344-1.707032-2.597656-2.640626-.191407-.222656-.421876-.402343-.613282-.625l-12.875 12.878907-14.242187 14.242187c1.859375.445313 3.710937.625 5.203125.582032 1.011718 0 2.058594-.105469 3.105468-.21875 2.410157-1.496094 4.859376-2.894532 7.363282-4.070313 4.605468-2.113281 9.191406-3.566406 13.648437-4.410156 2.996094-2.074219 5.898438-4.445313 8.578125-7.125.421875-.425781.835938-.851563 1.242188-1.273438-.894532-.585937-1.691406-1.308593-2.554688-1.945312-1.023437-.757813-2.0625-1.484375-3.035156-2.3125zm20.808594 11.164062c-.855469 1.039063-1.832032 2.074219-2.78125 3.101563 3.929687 1.53125 7.492187 3.707031 10.460937 6.671875.015625.011719.035157.015625.046875.03125 7.992188 7.988281 10.921875 19.765625 8.25 33.160156-1.574218 7.925781-5.210937 15.828125-10.21875 23.21875h65.59375v-32h-24c-13.234375 0-24-10.765625-24-24v-8.742187c-1.148437.167968-2.257812.457031-3.429687.554687-1.585938.105469-3.125.1875-4.570313.1875-5.175781 0-10.382812-.769531-15.351562-2.183594zm39.351562-3.386719v13.570313c0 4.410156 3.585938 8 8 8h24v-32c0-.769531.234375-1.464844.4375-2.167969-3.105468-2.734375-5.921875-5.777344-8.527344-9.023437-5.683593 9.433593-14.023437 16.902343-23.910156 21.621093zm48 37.570313h16c4.414063 0 8-3.589844 8-8v-24.578125c-8.441406-.960938-16.527344-3.425781-24-7.160156zm-151.242187-9.050781c.410156-.46875.855469-.917969 1.277343-1.378906-.328124-.128907-.609374-.339844-.933593-.476563-.097657.625-.214844 1.242187-.34375 1.855469zm26.554687 41.050781h22.648438c7.734375-7.796875 13.1875-17.386719 14.976562-26.34375.5625-2.835937 1.054688-7.164063.078125-11.355469zm247.773438 0-27.765625-27.769531-24.351563-24.351563c-2.515625 10.488281 3.25 25.855469 15.265625 37.917969 6.90625 6.847656 15.03125 11.871094 22.945313 14.203125zm36.914062-109.621094v61.234375c.191406-.167968.40625-.304687.597656-.46875 2.03125-1.761718 4.125-3.4375 6.304688-4.96875.246094-.175781.503906-.316406.753906-.488281 1.953125-1.339844 3.949219-2.5625 5.984375-3.691406.296875-.167969.578125-.382813.875-.542969.984375-4.363281 1.484375-8.875 1.484375-13.453125 0-17.035156-6.78125-31.992187-16-37.621094zm-32 37.621094c0 3.433594.265625 6.761719.789063 9.933594.035156.03125.0625.058593.097656.089843.917969.839844 1.777344 1.640626 2.605469 2.472657 2.394531 2.394531 4.589844 4.929687 6.617187 7.550781.691407.890625 1.242188 1.835938 1.886719 2.746094 1.25 1.773437 2.5 3.542968 3.570312 5.382812.128907.222656.308594.429688.433594.65625v-66.453125c-9.21875 5.628907-16 20.585938-16 37.621094zm-45.726562 8.558594 26.582031 26.582031 26.453125 26.457031c.054688-.21875.148438-.410156.195312-.636719.253907-1.277343.324219-2.671874.34375-4.09375.011719-.671874.105469-1.296874.0625-2-.132812-2.191406-.480468-4.492187-1.144531-6.90625-2.226562-8.414062-7.398437-16.960937-14.578125-24.144531-1.257812-1.25-2.515625-2.371093-3.835937-3.554687-11.460938-9.695313-24.757813-13.976563-34.078125-11.703125zm-16.34375-9.121094c-2.167969 1.15625-4.382813 2.246094-6.679688 3.175781-6.152344 2.550782-12.613281 4.167969-19.25 4.90625v24.480469c0 13.234375-10.765625 24-24 24h-16v16h78.199219c-1.085937-.964844-2.226563-1.84375-3.269531-2.875-22.15625-22.253906-27.109375-52.023437-11.347656-67.851563.007812-.011718.011718-.023437.019531-.03125.007812-.007812.015625-.007812.019531-.015624.003906 0 .003906-.003907.003906-.003907.003906-.003906.011719-.003906.011719-.007812.695313-.695313 1.542969-1.164063 2.292969-1.777344zm.898437-107.21875c-9.851562-7.898437-22.195312-12.21875-34.828125-12.21875-27.523437 0-51.359375 20.527344-55.445312 47.746094-.367188 2.863281-.554688 5.621093-.554688 8.253906 0 6.484375 1.078125 12.753906 3.203125 18.640625.710938 2.0625 1.445313 3.875 2.382813 5.683594 9.367187 19.316406 29.117187 31.675781 50.414062 31.675781 7.351563 0 14.476563-1.410156 21.179688-4.191406 15.992187-6.480469 28.226562-20.234375 32.789062-36.808594 1.351563-4.832031 2.03125-9.867187 2.03125-15 0-17.28125-7.71875-33.238281-21.171875-43.78125zm-146.828125-12.21875c0 7.941406 1.257813 15.660156 3.734375 22.945313.054688.152343.125.296874.179688.449218.851562 2.46875 1.839843 4.859375 2.933593 7.191406.394532.839844.847657 1.648438 1.269532 2.46875.84375 1.636719 1.734375 3.238282 2.691406 4.792969.527344.851563 1.070312 1.691407 1.628906 2.519531 1.023438 1.507813 2.105469 2.964844 3.230469 4.382813.566406.714844 1.113281 1.441406 1.703125 2.128906 1.558594 1.824219 3.207031 3.566407 4.9375 5.21875.210938.199219.394531.421875.605469.617188 1.960937 1.828125 4.042969 3.515625 6.199219 5.113281.652343.484375 1.34375.914062 2.011718 1.378906 1.570313 1.082032 3.175782 2.113282 4.835938 3.070313.816406.472656 1.648437.917969 2.484375 1.359375.675781.355468 1.382812.648437 2.070312.980468-.03125-.269531-.019531-.542968-.046875-.8125-.277344-2.574218-.46875-5.171874-.46875-7.804687 0-3.320313.234375-6.738281.703125-10.453125 5.28125-35.164062 35.921875-61.546875 71.296875-61.546875 2.460938 0 4.90625.167969 7.335938.421875.722656.074219 1.433594.175781 2.148437.273438 1.8125.242187 3.605469.554687 5.390625.933593.679688.144531 1.359375.273438 2.035156.433594 2.355469.574219 4.6875 1.230469 6.96875 2.035156.230469.082031.453126.1875.683594.273438 2.058594.75 4.074219 1.605469 6.054688 2.539062.28125.132813.582031.222657.859375.359375-4.320313-35.601562-34.726563-63.269531-71.476563-63.269531-39.703125 0-72 32.300781-72 72zm-25.359375 49.902344c-3.242187 4.859375-5.375 10.472656-6.148437 16.207031-.34375 1.945312-.492188 3.808594-.492188 5.890625 0 7.089844 1.792969 13.820313 5.332032 20 .003906.003906.007812.011719.011718.015625 0 0-.003906-.003906 0-.003906.023438 0 .34375.507812.65625 1.019531l.546875.851563c4.617188 6.921874 10.890625 12.09375 18.25 15.117187 5.773438 2.386719 12.304688 3.257813 18.617188 2.855469 15.867187-1.296875 29.46875-12.089844 34.523437-27.183594-.101562-.242188-.210937-.480469-.3125-.726562-1.339844-.417969-2.613281-.980469-3.925781-1.460938-1.203125-.441406-2.417969-.847656-3.597656-1.339844-2.230469-.925781-4.386719-1.984375-6.523438-3.085937-.882812-.457031-1.804687-.851563-2.671875-1.335938-2.949218-1.652343-5.800781-3.449219-8.523437-5.417969-.480469-.34375-.910157-.753906-1.382813-1.109374-2.21875-1.671876-4.371094-3.417969-6.417968-5.289063-.867188-.792969-1.660157-1.652344-2.492188-2.480469-1.5625-1.550781-3.09375-3.125-4.539062-4.792968-.855469-.988282-1.660157-2.015626-2.472657-3.042969-1.304687-1.648438-2.554687-3.332031-3.742187-5.078125-.746094-1.097656-1.472656-2.207032-2.171875-3.34375-1.125-1.828125-2.167969-3.714844-3.164063-5.636719-.589844-1.136719-1.195312-2.261719-1.738281-3.425781-.238281-.519532-.539063-.996094-.769531-1.519532-2.546875 1.15625-4.953125 2.582032-7.148438 4.238282-3.820312 2.746094-7.03125 6.097656-9.703125 10.078125zm-47.671875 74.21875 29.703125-29.707031c-.105469-.238282-.15625-.496094-.253906-.734376-.226563-.535156-.359375-1.085937-.566406-1.625-.996094-2.597656-1.796875-5.246093-2.398438-7.957031-.40625-1.820312-.789062-3.644531-1.011719-5.480469-.023437-.203124-.089843-.398437-.113281-.601562-3.523437 2.292969-6.929687 5.054688-10.140625 8.230469-11.976562 12.027343-17.734375 27.390625-15.21875 37.875zm-67.121094-29.175781 26.589844 26.589843 25.5625 25.558594v-11.09375c0-.519531.203125-.972656.296875-1.464844-2.207031-8.441406-7.214843-16.992187-14.53125-24.304687-12.042969-12.042969-27.417969-17.820313-37.917969-15.285156zm41.863282 64.492187-53.179688-53.179687c-2.53125 10.5 3.25 25.875 15.296875 37.917968 7.960938 7.960938 17.382813 13.351563 26.539063 15.183594 2.820312.5625 7.148437 1.058594 11.34375.078125zm-53.710938 80.5625h104v-32h-104zm135 136-14.117187-120h-103.882813l14.117188 120zm296-120h-103.882812l-14.117188 120h103.882813zm17-48h-104v32h104zm-14.039062-16c7.734375-7.796875 13.1875-17.386719 14.976562-26.34375.5625-2.835937 1.054688-7.15625.070313-11.351563l-37.695313 37.695313zm0 0" fill="url(#a)"/></svg>