<svg id="Capa_1" enable-background="new 0 0 512 512" height="512" viewBox="0 0 512 512" width="512" xmlns="http://www.w3.org/2000/svg"><g><g><g><path d="m250.593 401.594c-.073 0-.146-.001-.218-.002-1.935-.042-47.731-1.378-77.563-31.21-23.537-23.537-29.328-57.377-30.725-70.834-.469-4.514 1.102-8.942 4.31-12.15s7.636-4.78 12.15-4.31c13.457 1.398 47.298 7.19 70.833 30.726 29.832 29.833 31.168 75.628 31.21 77.563.06 2.727-.998 5.36-2.926 7.29-1.877 1.875-4.422 2.927-7.071 2.927z" fill="#00da80"/></g><g><path d="m261.407 401.593c-2.649 0-5.194-1.052-7.071-2.929-1.929-1.929-2.986-4.562-2.926-7.29.042-1.935 1.378-47.731 31.21-77.563 23.536-23.535 57.376-29.328 70.833-30.726 4.516-.468 8.943 1.102 12.15 4.31 3.208 3.208 4.779 7.637 4.31 12.151-1.397 13.457-7.188 47.296-30.725 70.833-29.833 29.832-75.628 31.168-77.563 31.21-.073.003-.145.004-.218.004z" fill="#00b9a0"/></g></g><g><g><path d="m256 428c-8.284 0-15-6.716-15-15v-158c0-8.284 6.716-15 15-15s15 6.716 15 15v158c0 8.284-6.716 15-15 15z" fill="#ccfc5c"/></g><path d="m271 413v-158c0-8.284-6.716-15-15-15v188c8.284 0 15-6.716 15-15z" fill="#00da80"/><g><g><path d="m176 190c-30.327 0-55-24.673-55-55s24.673-55 55-55 55 24.673 55 55-24.673 55-55 55z" fill="#fad180"/></g></g><g><g><path d="m199.431 246.542c-14.084 0-28.168-5.361-38.891-16.083-21.444-21.445-21.444-56.338 0-77.782 10.389-10.388 24.2-16.109 38.891-16.109s28.503 5.721 38.891 16.109 16.109 24.2 16.109 38.891-5.721 28.502-16.109 38.891c-10.722 10.723-24.806 16.083-38.891 16.083zm28.285-26.689h.01z" fill="#ff9f22"/></g></g><g><g><path d="m256 270c-30.327 0-55-24.673-55-55s24.673-55 55-55 55 24.673 55 55-24.673 55-55 55z" fill="#fad180"/></g></g><path d="m311 215c0-30.327-24.673-55-55-55v110c30.327 0 55-24.673 55-55z" fill="#ff9f22"/><g><path d="m312.568 246.542c-14.084 0-28.168-5.361-38.891-16.083-10.388-10.388-16.109-24.2-16.109-38.891s5.721-28.503 16.109-38.891 24.2-16.109 38.891-16.109 28.502 5.721 38.891 16.109c21.444 21.444 21.444 56.337 0 77.782-10.722 10.723-24.806 16.083-38.891 16.083z" fill="#ff7037"/></g><g><path d="m336 190c-30.327 0-55-24.673-55-55s24.673-55 55-55 55 24.673 55 55-24.673 55-55 55z" fill="#ff9f22"/></g><g><path d="m312.569 133.432c-14.691 0-28.503-5.721-38.891-16.109s-16.109-24.2-16.109-38.891 5.721-28.502 16.109-38.891c21.444-21.443 56.337-21.444 77.782 0 21.444 21.445 21.444 56.338 0 77.782-10.389 10.387-24.2 16.109-38.891 16.109z" fill="#ff7037"/></g><g><path d="m256 110c-30.327 0-55-24.673-55-55s24.673-55 55-55 55 24.673 55 55-24.673 55-55 55z" fill="#fad180"/></g><path d="m311 55c0-30.327-24.673-55-55-55v110c30.327 0 55-24.673 55-55z" fill="#ff9f22"/><g><g><path d="m199.431 133.432c-14.691 0-28.502-5.721-38.891-16.109-21.444-21.444-21.444-56.337 0-77.782 21.445-21.443 56.338-21.444 77.782 0 10.388 10.389 16.109 24.2 16.109 38.891s-5.721 28.503-16.109 38.891-24.199 16.109-38.891 16.109z" fill="#ff9f22"/></g></g><path d="m121 135c0-30.327 24.673-55 55-55s55 24.673 55 55" fill="#fad180"/><g><g><path d="m256 210c-41.355 0-75-33.645-75-75s33.645-75 75-75 75 33.645 75 75-33.645 75-75 75z" fill="#ab7b26"/></g><path d="m331 135c0-41.355-33.645-75-75-75v150c41.355 0 75-33.645 75-75z" fill="#8a6645"/><g><path d="m256 180c-24.813 0-45-20.187-45-45s20.187-45 45-45 45 20.187 45 45-20.187 45-45 45z" fill="#d59f40"/></g><path d="m301 135c0-24.813-20.187-45-45-45v90c24.813 0 45-20.187 45-45z" fill="#ab7b26"/><circle cx="256" cy="135" fill="#ab7b26" r="15"/><path d="m271 135c0-8.284-6.716-15-15-15v30c8.284 0 15-6.716 15-15z" fill="#8a6645"/></g><g><g><path d="m123.703 412 12.765 63.825c4.192 20.961 22.75 36.175 44.126 36.175h150.812c21.376 0 39.934-15.214 44.126-36.175l12.765-63.825z" fill="#ab7b26"/></g><path d="m375.532 475.825 12.765-63.825h-132.297v100h75.406c21.376 0 39.933-15.214 44.126-36.175z" fill="#8a6645"/><g><g><g><path d="m396 432h-280c-8.284 0-15-6.716-15-15s6.716-15 15-15h280c8.284 0 15 6.716 15 15s-6.716 15-15 15z" fill="#e1bb78"/></g></g></g><path d="m396 402h-140v30h140c8.284 0 15-6.716 15-15s-6.716-15-15-15z" fill="#d59f40"/></g></g></g></svg>